<svg xmlns="http://www.w3.org/2000/svg" xmlns:xlink="http://www.w3.org/1999/xlink" width="317.594" height="35.199" viewBox="0 0 317.594 35.199"><defs><style>.a{fill:#444;font-size:24px;font-family:Rubik-SemiBold, Rubik;font-weight:600;}.b{fill:url(#a);}</style><linearGradient id="a" x1="-0.041" y1="-0.059" x2="0.956" y2="1.14" gradientUnits="objectBoundingBox"><stop offset="0" stop-color="#845ec2"/><stop offset="1" stop-color="#ff5e78"/></linearGradient></defs><g transform="translate(-820.801 -26.5)"><g transform="translate(662)"><text class="a" transform="translate(202.394 51.771)"><tspan x="0" y="0">CS-GO Match Predictor</tspan></text></g><g transform="translate(820.801 26.5)"><path class="b" d="M16.892,31.784A14.892,14.892,0,1,1,31.784,16.892,14.909,14.909,0,0,1,16.892,31.784Zm0-27.55A12.658,12.658,0,1,0,29.55,16.892,12.672,12.672,0,0,0,16.892,4.234Z" transform="translate(0.708 0.708)"/><path class="b" d="M12.265,6.769A1.016,1.016,0,0,1,11.25,5.754V1.015a1.015,1.015,0,1,1,2.031,0V5.754A1.016,1.016,0,0,1,12.265,6.769Z" transform="translate(5.334)"/><path class="b" d="M24.754,13.281H20.015a1.015,1.015,0,0,1,0-2.031h4.738a1.015,1.015,0,0,1,0,2.031Z" transform="translate(9.43 5.334)"/><path class="b" d="M12.265,25.769a1.016,1.016,0,0,1-1.015-1.015V20.015a1.015,1.015,0,0,1,2.031,0v4.738A1.016,1.016,0,0,1,12.265,25.769Z" transform="translate(5.334 9.43)"/><path class="b" d="M5.754,13.281H1.015a1.015,1.015,0,1,1,0-2.031H5.754a1.015,1.015,0,0,1,0,2.031Z" transform="translate(0 5.334)"/><path class="b" d="M13.061,17.123a4.061,4.061,0,1,1,4.061-4.061A4.066,4.066,0,0,1,13.061,17.123Zm0-6.092a2.031,2.031,0,1,0,2.031,2.031A2.033,2.033,0,0,0,13.061,11.031Z" transform="translate(4.538 4.538)"/></g></g></svg>